<svg width="100" height="100" viewBox="0 0 100 100" fill="none" xmlns="http://www.w3.org/2000/svg">
<circle cx="50" cy="50" r="50" fill="#38D9A9"/>
<path d="M19.155 64.045C17.8717 64.045 16.985 63.7883 16.495 63.275C16.005 62.785 15.7483 62.1433 15.725 61.35C15.725 60.6733 15.8533 59.8683 16.11 58.935C16.39 57.9783 16.67 57.0683 16.95 56.205C17.51 54.5483 18.0933 52.915 18.7 51.305C19.3067 49.695 19.9133 48.1433 20.52 46.65C21.15 45.1567 21.745 43.7333 22.305 42.38C22.8883 41.0267 23.425 39.7783 23.915 38.635C22.3283 38.6583 20.9517 38.705 19.785 38.775C18.6417 38.845 17.5917 38.9383 16.635 39.055C15.6783 39.1483 14.6867 39.2883 13.66 39.475C13.7767 38.495 14.2317 37.7483 15.025 37.235C15.8417 36.6983 16.9267 36.325 18.28 36.115C19.6333 35.905 21.185 35.8 22.935 35.8C23.845 35.8 24.6967 35.8233 25.49 35.87C26.3067 35.8933 27.0767 35.94 27.8 36.01C28.5467 36.08 29.27 36.15 29.97 36.22C31.44 36.36 32.6067 36.4533 33.47 36.5C34.3567 36.5467 34.9867 36.57 35.36 36.57C34.66 37.2233 33.7733 37.7017 32.7 38.005C31.65 38.285 30.5417 38.46 29.375 38.53C28.2083 38.6 27.1 38.635 26.05 38.635C24.93 41.3883 23.9033 44.2467 22.97 47.21C22.0367 50.1733 21.1733 53.1017 20.38 55.995C20.0767 57.115 19.82 58.0717 19.61 58.865C19.4233 59.635 19.2833 60.3467 19.19 61C19.0967 61.63 19.05 62.3067 19.05 63.03C19.05 63.1467 19.05 63.275 19.05 63.415C19.0733 63.5783 19.1083 63.7883 19.155 64.045ZM28.6991 62.05C27.9057 62.05 27.2524 61.6883 26.7391 60.965C26.2491 60.2183 26.0041 59.3667 26.0041 58.41C26.0041 57.7567 26.1091 56.9867 26.3191 56.1C26.5291 55.2133 26.7974 54.35 27.1241 53.51C27.4741 52.67 27.8241 51.97 28.1741 51.41C28.5474 50.85 28.8857 50.57 29.1891 50.57C29.3524 50.57 29.5974 50.6633 29.9241 50.85C30.2741 51.0133 30.5774 51.2233 30.8341 51.48C30.5774 51.8533 30.2624 52.425 29.8891 53.195C29.5391 53.965 29.2241 54.7933 28.9441 55.68C28.6641 56.5667 28.5241 57.3717 28.5241 58.095C28.5241 58.1883 28.5357 58.41 28.5591 58.76C28.6057 59.11 28.6991 59.4367 28.8391 59.74C28.9791 60.0433 29.2241 60.195 29.5741 60.195C29.9707 60.195 30.3907 59.985 30.8341 59.565C31.3007 59.1217 31.7674 58.5617 32.2341 57.885C32.7241 57.185 33.1907 56.4383 33.6341 55.645C34.1007 54.8517 34.5091 54.0817 34.8591 53.335C35.2324 52.5883 35.5357 51.9583 35.7691 51.445C35.9791 51.4683 36.2474 51.5267 36.5741 51.62C36.9241 51.7133 37.2274 51.8417 37.4841 52.005C37.7407 52.145 37.8691 52.355 37.8691 52.635C37.8691 52.705 37.7524 52.9967 37.5191 53.51C37.3091 54 37.0524 54.595 36.7491 55.295C36.4691 55.995 36.2124 56.7183 35.9791 57.465C35.7691 58.1883 35.6641 58.83 35.6641 59.39C35.6641 59.7167 35.7224 60.0083 35.8391 60.265C35.9791 60.4983 36.2357 60.615 36.6091 60.615C37.0991 60.615 37.6824 60.3933 38.3591 59.95C39.0357 59.5067 39.7357 58.865 40.4591 58.025C41.1824 57.185 41.8241 56.1817 42.3841 55.015L42.9091 55.435C42.3957 56.695 41.7307 57.8267 40.9141 58.83C40.0974 59.8333 39.2224 60.615 38.2891 61.175C37.3557 61.7583 36.4457 62.05 35.5591 62.05C34.8824 62.05 34.3691 61.8867 34.0191 61.56C33.6924 61.2567 33.4707 60.86 33.3541 60.37C33.2374 59.8567 33.1674 59.3433 33.1441 58.83C33.1441 58.7133 33.1441 58.5967 33.1441 58.48C33.1441 58.34 33.1441 58.2233 33.1441 58.13C32.7474 58.76 32.3157 59.3783 31.8491 59.985C31.3824 60.5683 30.8807 61.0583 30.3441 61.455C29.8307 61.8517 29.2824 62.05 28.6991 62.05ZM45.5833 62.785C44.4166 62.785 43.4716 62.54 42.7483 62.05C42.0483 61.5833 41.5466 60.9883 41.2433 60.265C40.9399 59.5183 40.7883 58.76 40.7883 57.99C40.7883 57.3133 40.8816 56.7883 41.0683 56.415C41.2549 56.0417 41.4883 55.7733 41.7683 55.61C42.0483 55.4233 42.3049 55.2833 42.5383 55.19C42.7949 55.0967 42.9816 54.9917 43.0983 54.875C43.6816 54.2683 44.2766 53.5683 44.8833 52.775C45.5133 51.9583 46.0499 51.06 46.4933 50.08V49.73C46.4933 48.7967 46.6449 48.1433 46.9483 47.77C47.2749 47.3733 47.6483 47.175 48.0683 47.175C48.3483 47.175 48.5466 47.245 48.6633 47.385C48.8033 47.525 48.8849 47.6883 48.9083 47.875C48.9083 48.015 48.8733 48.1783 48.8033 48.365C48.7566 48.5517 48.7333 48.8083 48.7333 49.135C48.7333 49.835 48.8966 50.64 49.2233 51.55C49.5733 52.4367 49.9116 53.3817 50.2383 54.385C50.5883 55.3883 50.7633 56.415 50.7633 57.465C50.7633 57.745 50.7516 58.0017 50.7283 58.235C50.7049 58.4683 50.6699 58.69 50.6233 58.9C51.3466 58.7133 52.0583 58.3167 52.7583 57.71C53.4583 57.08 54.1233 56.1583 54.7533 54.945L55.1733 55.26C54.7299 56.59 54.0883 57.6633 53.2483 58.48C52.4083 59.2733 51.4283 59.7633 50.3083 59.95C49.9349 60.9067 49.3166 61.6183 48.4533 62.085C47.6133 62.5517 46.6566 62.785 45.5833 62.785ZM45.3383 61.245C45.8049 61.245 46.2366 61.1283 46.6333 60.895C47.0299 60.6617 47.3449 60.3233 47.5783 59.88C46.6216 59.67 45.7583 59.2967 44.9883 58.76C44.2183 58.2233 43.6233 57.675 43.2033 57.115C42.8766 57.185 42.7133 57.5 42.7133 58.06C42.7133 58.83 42.9349 59.5533 43.3783 60.23C43.8216 60.9067 44.4749 61.245 45.3383 61.245ZM47.8583 58.83C47.9049 58.6667 47.9283 58.48 47.9283 58.27C47.9516 58.0367 47.9633 57.8617 47.9633 57.745C47.9399 56.695 47.7999 55.6567 47.5433 54.63C47.2866 53.6033 47.0299 52.5533 46.7733 51.48C46.3533 52.2033 45.8633 52.985 45.3033 53.825C44.7433 54.665 44.2183 55.3417 43.7283 55.855C44.1016 56.485 44.6499 57.08 45.3733 57.64C46.0966 58.2 46.9249 58.5967 47.8583 58.83ZM56.9438 62.61C55.9171 62.61 55.0888 62.3067 54.4588 61.7C53.8288 61.0933 53.5138 60.1717 53.5138 58.935C53.5138 57.9783 53.6888 56.7883 54.0388 55.365C54.4121 53.9417 54.8788 52.4717 55.4388 50.955C55.2755 50.9083 55.0771 50.8733 54.8438 50.85C54.6338 50.8033 54.4238 50.7333 54.2138 50.64V49.555C54.5871 49.6017 54.8905 49.6367 55.1238 49.66C55.3805 49.6833 55.6371 49.7067 55.8938 49.73C56.3838 48.4933 56.9088 47.3033 57.4688 46.16C58.0521 44.9933 58.6238 43.955 59.1838 43.045C59.7671 42.135 60.3155 41.4233 60.8288 40.91C61.3421 40.3733 61.7971 40.105 62.1938 40.105C62.4271 40.105 62.6488 40.1983 62.8588 40.385C63.0688 40.5483 63.1738 40.7933 63.1738 41.12C63.1738 41.5867 62.9288 42.2517 62.4388 43.115C61.9721 43.9783 61.3888 44.9933 60.6888 46.16C59.9888 47.3033 59.3121 48.5283 58.6588 49.835C58.8455 49.835 59.0321 49.835 59.2188 49.835C59.4055 49.835 59.5805 49.835 59.7438 49.835C60.7705 49.835 61.6921 49.8233 62.5088 49.8C63.3488 49.7533 64.2005 49.6833 65.0638 49.59V50.745C63.7805 50.8617 62.6021 50.955 61.5288 51.025C60.4555 51.095 59.4288 51.1417 58.4488 51.165C58.3788 51.165 58.3088 51.165 58.2388 51.165C58.1688 51.165 58.0988 51.165 58.0288 51.165C57.5388 52.3083 57.1071 53.4867 56.7338 54.7C56.3838 55.89 56.2088 57.0567 56.2088 58.2C56.2088 59.1567 56.3605 59.8333 56.6638 60.23C56.9671 60.6267 57.4455 60.825 58.0988 60.825C59.2655 60.825 60.4555 60.3 61.6688 59.25C62.9055 58.1767 63.9788 56.73 64.8888 54.91L65.3788 55.26C64.7721 56.6367 64.0138 57.885 63.1038 59.005C62.2171 60.125 61.2488 61 60.1988 61.63C59.1488 62.2833 58.0638 62.61 56.9438 62.61ZM67.9018 62.54C66.4085 62.54 65.2535 62.1317 64.4368 61.315C63.6435 60.5217 63.2468 59.5183 63.2468 58.305C63.2468 57.2783 63.5035 56.1933 64.0168 55.05C64.5535 53.8833 65.2651 52.7983 66.1518 51.795C67.0385 50.7683 68.0185 49.94 69.0918 49.31C70.1651 48.68 71.2385 48.365 72.3118 48.365C72.9185 48.365 73.4901 48.5283 74.0268 48.855C74.5868 49.1583 74.8668 49.7767 74.8668 50.71C74.8668 51.5967 74.6101 52.425 74.0968 53.195C73.5835 53.965 72.8951 54.6533 72.0318 55.26C71.1685 55.8667 70.2118 56.3683 69.1618 56.765C68.1351 57.1383 67.0968 57.3833 66.0468 57.5C66.0235 57.5933 66.0001 57.6983 65.9768 57.815C65.9768 57.9083 65.9768 58.0717 65.9768 58.305C65.9768 58.4217 65.9885 58.6317 66.0118 58.935C66.0585 59.215 66.1635 59.5183 66.3268 59.845C66.4901 60.1717 66.7585 60.4517 67.1318 60.685C67.5051 60.9183 68.0185 61.035 68.6718 61.035C69.6518 61.035 70.6318 60.7667 71.6118 60.23C72.6151 59.67 73.5485 58.935 74.4118 58.025C75.2985 57.115 76.0335 56.1 76.6168 54.98L77.3168 55.54C76.6868 56.94 75.8701 58.165 74.8668 59.215C73.8868 60.265 72.7901 61.0817 71.5768 61.665C70.3868 62.2483 69.1618 62.54 67.9018 62.54ZM66.4318 56.205C67.0385 56.135 67.7151 55.925 68.4618 55.575C69.2085 55.225 69.9201 54.7817 70.5968 54.245C71.2968 53.7083 71.8685 53.125 72.3118 52.495C72.7551 51.8417 72.9768 51.1883 72.9768 50.535C72.9768 50.2783 72.9301 50.1033 72.8368 50.01C72.7435 49.9167 72.5918 49.87 72.3818 49.87C71.8451 49.87 71.2851 50.0683 70.7018 50.465C70.1185 50.8383 69.5468 51.34 68.9868 51.97C68.4268 52.5767 67.9251 53.2533 67.4818 54C67.0385 54.7467 66.6885 55.4817 66.4318 56.205ZM82.2455 61.91C81.3822 61.91 80.6822 61.6767 80.1455 61.21C79.6088 60.7667 79.3405 60.16 79.3405 59.39C79.3405 58.7367 79.5038 58.0367 79.8305 57.29C80.1572 56.5433 80.4838 55.8083 80.8105 55.085C81.1605 54.3617 81.3355 53.72 81.3355 53.16C81.3355 52.6233 81.1605 52.18 80.8105 51.83C80.4605 51.4567 80.0522 51.1533 79.5855 50.92C79.0722 52.2033 78.4888 53.4517 77.8355 54.665C77.2055 55.855 76.6922 56.7883 76.2955 57.465L75.7705 56.45C76.0972 55.8433 76.5288 54.98 77.0655 53.86C77.6022 52.74 78.1155 51.4917 78.6055 50.115C78.3722 49.8817 78.2555 49.5667 78.2555 49.17C78.2555 48.5633 78.4422 47.9917 78.8155 47.455C79.1888 46.9183 79.5505 46.65 79.9005 46.65C80.1805 46.65 80.3788 46.8133 80.4955 47.14C80.6355 47.4433 80.7055 47.6533 80.7055 47.77C80.7055 47.8867 80.6472 48.0967 80.5305 48.4C80.4372 48.7033 80.3672 48.925 80.3205 49.065C80.3438 49.3217 80.5422 49.5783 80.9155 49.835C81.3122 50.0683 81.7555 50.3483 82.2455 50.675C82.7355 51.0017 83.1672 51.41 83.5405 51.9C83.9138 52.39 84.1005 53.0083 84.1005 53.755C84.1005 54.4317 83.9488 55.12 83.6455 55.82C83.3422 56.52 83.0388 57.1733 82.7355 57.78C82.4322 58.3867 82.2805 58.9117 82.2805 59.355C82.2805 59.6817 82.3622 59.9033 82.5255 60.02C82.7122 60.1133 82.9222 60.16 83.1555 60.16C83.7155 60.16 84.2988 59.9967 84.9055 59.67C85.5122 59.32 86.1072 58.8767 86.6905 58.34C87.2738 57.8033 87.7872 57.2433 88.2305 56.66C88.6738 56.0533 89.0122 55.505 89.2455 55.015L90.0855 55.645C89.6422 56.6483 89.0005 57.64 88.1605 58.62C87.3205 59.5767 86.3872 60.37 85.3605 61C84.3338 61.6067 83.2955 61.91 82.2455 61.91Z" fill="white"/>
</svg>
